<svg width="540" height="360" viewBox="0 0 540 360" fill="none" xmlns="http://www.w3.org/2000/svg">
<path d="M416.512 179.156C416.512 181.199 414.862 182.858 412.831 182.858C410.799 182.858 409.149 181.199 409.149 179.156C409.149 177.113 410.799 175.453 412.831 175.453C414.862 175.453 416.512 177.113 416.512 179.156ZM414.691 179.156C414.691 178.129 413.861 177.285 412.84 177.285C411.82 177.285 410.98 178.12 410.98 179.156C410.98 180.182 411.81 181.026 412.84 181.026C413.861 181.026 414.691 180.182 414.691 179.156Z" fill="#C8CAFF"/>
<path d="M478.356 43.6907H457.516C457.01 43.6907 456.6 44.1031 456.6 44.6115C456.6 45.1199 457.01 45.5323 457.516 45.5323H478.356C478.862 45.5323 479.272 45.1199 479.272 44.6115C479.272 44.1031 478.862 43.6907 478.356 43.6907Z" fill="#C8CAFF"/>
<path d="M450.887 43.6812H446.814C446.309 43.6812 445.899 44.0936 445.899 44.602C445.899 45.1103 446.309 45.5228 446.814 45.5228H450.887C451.393 45.5228 451.803 45.1103 451.803 44.602C451.803 44.0936 451.393 43.6812 450.887 43.6812Z" fill="#C8CAFF"/>
<path d="M468.57 50.9901C468.57 51.4985 468.16 51.911 467.655 51.911H465.051C464.545 51.911 464.135 51.4985 464.135 50.9901C464.135 50.4818 464.545 50.0693 465.051 50.0693H467.655C468.16 50.0693 468.57 50.4818 468.57 50.9901ZM461.407 50.9901C461.407 51.4985 460.997 51.911 460.492 51.911H455.933C455.427 51.911 455.017 51.4985 455.017 50.9901C455.017 50.4818 455.427 50.0693 455.933 50.0693H460.492C460.997 50.0693 461.407 50.4818 461.407 50.9901ZM452.289 50.9901C452.289 51.4985 451.879 51.911 451.373 51.911H446.814C446.309 51.911 445.899 51.4985 445.899 50.9901C445.899 50.4818 446.309 50.0693 446.814 50.0693H451.373C451.879 50.0693 452.289 50.4818 452.289 50.9901Z" fill="#C8CAFF"/>
<path d="M140.284 104.973C139.779 104.973 139.368 105.385 139.368 105.893V108.023C139.368 108.531 139.779 108.944 140.284 108.944C140.79 108.944 141.2 108.531 141.2 108.023V105.893C141.2 105.385 140.79 104.973 140.284 104.973Z" fill="#C8CAFF"/>
<path d="M137.9 102.843H135.782C135.277 102.843 134.866 103.256 134.866 103.764C134.866 104.272 135.277 104.685 135.782 104.685H137.9C138.405 104.685 138.815 104.272 138.815 103.764C138.815 103.246 138.405 102.843 137.9 102.843Z" fill="#C8CAFF"/>
<path d="M140.284 98.4312C139.779 98.4312 139.368 98.8436 139.368 99.352V101.481C139.368 101.99 139.779 102.402 140.284 102.402C140.79 102.402 141.2 101.99 141.2 101.481V99.352C141.2 98.8436 140.79 98.4312 140.284 98.4312Z" fill="#C8CAFF"/>
<path d="M144.786 102.69H142.668C142.163 102.69 141.753 103.102 141.753 103.611C141.753 104.119 142.163 104.532 142.668 104.532H144.786C145.291 104.532 145.702 104.119 145.702 103.611C145.702 103.102 145.291 102.69 144.786 102.69Z" fill="#C8CAFF"/>
<path d="M369.576 45.5417C369.071 45.5417 368.66 45.9542 368.66 46.4626V48.5919C368.66 49.1003 369.071 49.5128 369.576 49.5128C370.082 49.5128 370.492 49.1003 370.492 48.5919V46.4626C370.492 45.9446 370.082 45.5417 369.576 45.5417Z" fill="#C8CAFF"/>
<path d="M367.192 43.4028H365.074C364.569 43.4028 364.159 43.8153 364.159 44.3236C364.159 44.832 364.569 45.2445 365.074 45.2445H367.192C367.697 45.2445 368.107 44.832 368.107 44.3236C368.107 43.8153 367.697 43.4028 367.192 43.4028Z" fill="#C8CAFF"/>
<path d="M369.576 39.0002C369.071 39.0002 368.66 39.4127 368.66 39.9211V42.0504C368.66 42.5588 369.071 42.9713 369.576 42.9713C370.082 42.9713 370.492 42.5588 370.492 42.0504V39.9211C370.492 39.4127 370.082 39.0002 369.576 39.0002Z" fill="#C8CAFF"/>
<path d="M374.078 43.259H371.961C371.455 43.259 371.045 43.6715 371.045 44.1798C371.045 44.6882 371.455 45.1007 371.961 45.1007H374.078C374.584 45.1007 374.994 44.6882 374.994 44.1798C374.994 43.6715 374.584 43.259 374.078 43.259Z" fill="#C8CAFF"/>
<path d="M284.593 0H263.753C263.247 0 262.837 0.412448 262.837 0.920814C262.837 1.42918 263.247 1.84163 263.753 1.84163H284.593C285.098 1.84163 285.509 1.42918 285.509 0.920814C285.499 0.412448 285.089 0 284.593 0Z" fill="#C8CAFF"/>
<path d="M257.124 0H253.051C252.546 0 252.136 0.412448 252.136 0.920814C252.136 1.42918 252.546 1.84163 253.051 1.84163H257.124C257.63 1.84163 258.04 1.42918 258.04 0.920814C258.03 0.412448 257.62 0 257.124 0Z" fill="#C8CAFF"/>
<path d="M274.798 7.309C274.798 7.81736 274.387 8.22981 273.882 8.22981H271.278C270.773 8.22981 270.362 7.81736 270.362 7.309C270.362 6.80063 270.773 6.38818 271.278 6.38818H273.882C274.387 6.38818 274.798 6.80063 274.798 7.309ZM267.635 7.309C267.635 7.81736 267.224 8.22981 266.719 8.22981H262.16C261.654 8.22981 261.244 7.81736 261.244 7.309C261.244 6.80063 261.654 6.38818 262.16 6.38818H266.719C267.224 6.38818 267.635 6.80063 267.635 7.309ZM258.516 7.309C258.516 7.81736 258.106 8.22981 257.601 8.22981H253.041C252.536 8.22981 252.126 7.81736 252.126 7.309C252.126 6.80063 252.536 6.38818 253.041 6.38818H257.601C258.116 6.38818 258.516 6.80063 258.516 7.309Z" fill="#C8CAFF"/>
<path d="M508.573 96.0428C508.573 97.8269 510.013 99.2849 511.796 99.2849C513.57 99.2849 515.02 97.8365 515.02 96.0428C515.02 94.2587 513.58 92.8008 511.796 92.8008C510.013 92.8104 508.573 94.2587 508.573 96.0428Z" fill="#C8CAFF"/>
<path d="M86.5853 254.653H107.426C107.931 254.653 108.341 254.241 108.341 253.732C108.341 253.224 107.931 252.812 107.426 252.812H86.5853C86.0798 252.812 85.6697 253.224 85.6697 253.732C85.6792 254.25 86.0798 254.653 86.5853 254.653Z" fill="#C8CAFF"/>
<path d="M75.8838 254.663H79.9565C80.462 254.663 80.8721 254.251 80.8721 253.742C80.8721 253.234 80.462 252.822 79.9565 252.822H75.8838C75.3783 252.822 74.9681 253.234 74.9681 253.742C74.9681 254.251 75.3783 254.663 75.8838 254.663Z" fill="#C8CAFF"/>
<path d="M480.321 269.568C480.321 269.568 481.561 278.498 471.193 278.287C471.193 278.287 480.102 278.383 479.873 286.757C479.873 286.757 480.674 280.167 488.848 278.69C488.848 278.69 481.933 280.292 480.321 269.568Z" fill="#C8CAFF"/>
<path d="M529.842 143.609C529.842 143.609 531.082 152.539 520.714 152.328C520.714 152.328 529.623 152.424 529.394 160.797C529.394 160.797 530.195 154.208 538.369 152.73C538.36 152.74 531.454 154.332 529.842 143.609Z" fill="#C8CAFF"/>
<path d="M200.869 22.7134C200.869 22.7134 202.109 31.6434 191.741 31.4323C191.741 31.4323 200.65 31.5283 200.421 39.9019C200.421 39.9019 201.222 33.3123 209.396 31.8352C209.396 31.8448 202.49 33.437 200.869 22.7134Z" fill="#C8CAFF"/>
<path d="M111.584 47.374C111.584 47.374 112.824 56.304 102.457 56.093C102.457 56.093 111.365 56.1889 111.136 64.5626C111.136 64.5626 111.937 57.973 120.111 56.4958C120.111 56.5054 113.196 58.0977 111.584 47.374Z" fill="#C8CAFF"/>
<path d="M165.703 9.20825C165.703 9.20825 166.132 12.316 162.517 12.2489C162.517 12.2489 165.626 12.2776 165.54 15.2031C165.54 15.2031 165.817 12.9011 168.669 12.3927C168.669 12.3927 166.265 12.9491 165.703 9.20825Z" fill="#C8CAFF"/>
<path d="M328.124 116.512C328.124 116.512 328.553 119.619 324.938 119.552C324.938 119.552 328.048 119.581 327.962 122.507C327.962 122.507 328.239 120.205 331.09 119.696C331.1 119.696 328.687 120.253 328.124 116.512Z" fill="#C8CAFF"/>
<path d="M27.1831 169.708C27.1831 169.708 27.6123 172.816 23.9974 172.749C23.9974 172.749 27.1068 172.777 27.021 175.703C27.021 175.703 27.2976 173.401 30.1494 172.893C30.1494 172.893 27.7458 173.449 27.1831 169.708Z" fill="#C8CAFF"/>
<path d="M297.24 253.617C297.24 253.617 297.67 256.725 294.055 256.658C294.055 256.658 297.164 256.687 297.078 259.612C297.078 259.612 297.355 257.31 300.207 256.802C300.216 256.802 297.803 257.358 297.24 253.617Z" fill="#C8CAFF"/>
<path d="M174.354 203.452H154.124C151.539 203.452 149.431 201.332 149.431 198.733C149.431 196.181 151.453 194.09 153.971 194.014C154.038 190.043 157.271 186.829 161.239 186.829C163.7 186.829 165.989 188.086 167.324 190.148C170.052 189.755 172.484 191.481 173.171 194.014H174.354C176.938 194.014 179.046 196.133 179.046 198.733C179.046 201.332 176.938 203.452 174.354 203.452ZM154.124 195.414C152.302 195.414 150.814 196.901 150.814 198.742C150.814 200.574 152.292 202.061 154.124 202.061H174.354C176.175 202.061 177.663 200.574 177.663 198.742C177.663 196.91 176.185 195.414 174.354 195.414H172.017L171.921 194.829C171.568 192.604 169.47 191.05 167.133 191.616L166.618 191.74L166.361 191.28C165.321 189.41 163.356 188.239 161.229 188.239C157.986 188.239 155.354 190.887 155.354 194.148C155.354 194.321 155.364 194.493 155.383 194.656L155.449 195.414H154.124Z" fill="#C8CAFF"/>
<path d="M535.307 31.2598H515.077C512.493 31.2598 510.385 29.14 510.385 26.5407C510.385 23.9892 512.407 21.8982 514.925 21.8215C514.992 17.8505 518.225 14.6372 522.193 14.6372C524.654 14.6372 526.943 15.8937 528.278 17.956C531.006 17.5627 533.438 19.2892 534.125 21.8215H535.307C537.892 21.8215 540 23.9413 540 26.5407C540 29.14 537.892 31.2598 535.307 31.2598ZM515.077 23.2123C513.256 23.2123 511.768 24.699 511.768 26.5407C511.768 28.3823 513.246 29.8594 515.077 29.8594H535.307C537.129 29.8594 538.617 28.3727 538.617 26.5407C538.617 24.7086 537.139 23.2123 535.307 23.2123H532.971L532.875 22.6272C532.522 20.4019 530.424 18.848 528.087 19.4139L527.572 19.5386L527.315 19.0782C526.275 17.2078 524.31 16.0376 522.183 16.0376C518.94 16.0376 516.308 18.685 516.308 21.9462C516.308 22.1188 516.317 22.2915 516.336 22.4545L516.403 23.2123H515.077Z" fill="#C8CAFF"/>
<path d="M222.015 83.2091H201.785C199.2 83.2091 197.092 81.0893 197.092 78.4899C197.092 75.9385 199.114 73.8474 201.632 73.7707C201.699 69.7997 204.932 66.5864 208.9 66.5864C211.361 66.5864 213.65 67.843 214.985 69.9052C217.713 69.5119 220.145 71.2385 220.832 73.7707H222.015C224.599 73.7707 226.707 75.8905 226.707 78.4899C226.707 81.0893 224.609 83.2091 222.015 83.2091ZM201.785 75.1615C199.963 75.1615 198.484 76.6482 198.484 78.4899C198.484 80.3315 199.963 81.8086 201.785 81.8086H222.015C223.836 81.8086 225.324 80.3219 225.324 78.4899C225.324 76.6578 223.846 75.1615 222.015 75.1615H219.678L219.582 74.5764C219.229 72.3511 217.131 70.7972 214.794 71.3632L214.279 71.4878L214.022 71.0274C212.982 69.157 211.017 67.9868 208.89 67.9868C205.647 67.9868 203.015 70.6342 203.015 73.8954C203.015 74.068 203.025 74.2407 203.044 74.4038L203.11 75.1615H201.785Z" fill="#C8CAFF"/>
<path d="M184.578 142.285L194.355 152.836L268.903 121.567L184.578 142.285Z" fill="#7786FF"/>
<path d="M188.06 107.476L180.696 118.651L185.675 129.595L174.506 131.504L164.634 153.296L271.288 120.838L188.06 107.476Z" fill="#C8CAFF"/>
<path d="M185.675 129.595L180.696 118.651L238.458 121.365L185.675 129.595Z" fill="#7786FF"/>
<path d="M180.057 237.848C179.237 237.848 178.417 237.839 177.596 237.829C176.767 237.82 176.108 237.139 176.118 236.314C176.128 235.489 176.843 234.731 177.625 234.827C181.497 234.875 185.341 234.808 189.557 234.635C189.576 234.635 189.605 234.635 189.624 234.635C190.425 234.635 191.083 235.268 191.121 236.074C191.159 236.899 190.511 237.609 189.691 237.637C186.305 237.781 183.157 237.848 180.057 237.848ZM165.617 237.254C165.569 237.254 165.531 237.254 165.483 237.244C161.363 236.889 157.319 236.362 153.446 235.661C152.636 235.518 152.092 234.741 152.235 233.916C152.378 233.1 153.16 232.582 153.971 232.698C157.748 233.379 161.716 233.897 165.741 234.242C166.561 234.309 167.171 235.038 167.105 235.872C167.038 236.669 166.38 237.254 165.617 237.254ZM142.02 232.918C141.877 232.918 141.724 232.899 141.581 232.851C137.652 231.642 133.817 230.156 130.183 228.448C129.439 228.093 129.115 227.201 129.468 226.453C129.821 225.695 130.717 225.379 131.452 225.734C134.952 227.384 138.653 228.813 142.449 229.983C143.241 230.223 143.68 231.067 143.441 231.863C143.25 232.496 142.659 232.918 142.02 232.918ZM120.369 222.664C120.083 222.664 119.797 222.588 119.539 222.415C116.153 220.142 112.92 217.59 109.915 214.818C109.305 214.262 109.267 213.303 109.829 212.699C110.392 212.094 111.336 212.046 111.937 212.612C114.818 215.279 117.937 217.734 121.189 219.921C121.876 220.382 122.057 221.312 121.599 222.003C121.332 222.425 120.855 222.664 120.369 222.664ZM102.752 206.378C102.313 206.378 101.875 206.186 101.579 205.812C99.0419 202.598 96.7338 199.174 94.7212 195.625C94.3111 194.906 94.5591 193.985 95.284 193.573C95.9993 193.17 96.915 193.419 97.3251 194.138C99.2613 197.553 101.484 200.853 103.925 203.941C104.44 204.593 104.335 205.534 103.687 206.051C103.41 206.272 103.086 206.378 102.752 206.378ZM90.9156 185.467C90.3147 185.467 89.7424 185.093 89.5135 184.489C88.0542 180.595 86.9192 176.605 86.1562 172.643C85.994 171.828 86.5282 171.041 87.3389 170.878C88.1591 170.706 88.9317 171.252 89.0939 172.068C89.8283 175.866 90.9156 179.693 92.3177 183.434C92.6134 184.211 92.2223 185.074 91.4497 185.371C91.2685 185.439 91.0873 185.467 90.9156 185.467ZM86.1466 161.881C85.3645 161.881 84.7064 161.267 84.6587 160.471C84.5061 158.016 84.4298 155.426 84.4298 152.788V152.174C84.4393 150.87 84.4584 149.556 84.4966 148.251C84.5252 147.436 85.1833 146.793 85.994 146.793C86.0131 146.793 86.0226 146.793 86.0417 146.793C86.862 146.822 87.5106 147.513 87.4915 148.347C87.4533 149.632 87.4247 150.908 87.4247 152.184V152.788C87.4247 155.368 87.501 157.891 87.6536 160.279C87.7109 161.104 87.0814 161.824 86.2611 161.872C86.2134 161.881 86.1753 161.881 86.1466 161.881Z" fill="#C8CAFF"/>
<path d="M98.7177 138.036C96.4381 138.036 94.1872 138.007 91.9839 137.95C91.1636 137.93 90.5055 137.24 90.5246 136.405C90.5437 135.59 91.2113 134.938 92.022 134.938C92.0316 134.938 92.0507 134.938 92.0602 134.938C95.9231 135.034 99.9004 135.043 104.002 134.966C104.927 134.918 105.509 135.609 105.528 136.444C105.547 137.278 104.889 137.959 104.059 137.978C102.256 138.017 100.473 138.036 98.7177 138.036ZM116.029 137.537C115.247 137.537 114.579 136.914 114.541 136.117C114.493 135.293 115.123 134.583 115.953 134.535C119.816 134.314 123.831 134.026 127.885 133.662C128.686 133.576 129.439 134.199 129.506 135.024C129.582 135.849 128.972 136.578 128.152 136.655C124.07 137.019 120.016 137.316 116.115 137.527C116.086 137.537 116.058 137.537 116.029 137.537ZM80.0233 137.345C79.9852 137.345 79.947 137.345 79.9089 137.345C75.7503 137.019 71.6967 136.578 67.872 136.022C67.0517 135.906 66.489 135.139 66.6034 134.324C66.7179 133.508 67.4905 132.952 68.2916 133.048C72.0496 133.585 76.0365 134.026 80.1378 134.343C80.958 134.41 81.578 135.13 81.5112 135.964C81.454 136.741 80.7959 137.345 80.0233 137.345ZM139.96 135.417C139.216 135.417 138.567 134.851 138.481 134.084C138.386 133.259 138.977 132.511 139.798 132.415C143.68 131.955 147.638 131.437 151.672 130.861C152.493 130.727 153.246 131.312 153.361 132.137C153.475 132.962 152.912 133.72 152.092 133.835C148.029 134.42 144.051 134.938 140.141 135.398C140.074 135.417 140.017 135.417 139.96 135.417ZM56.2548 133.883C56.1499 133.883 56.0354 133.873 55.9305 133.844C53.0405 133.192 50.2173 132.453 47.5562 131.657C46.4212 131.322 45.3052 130.967 44.2084 130.602C43.4262 130.343 42.997 129.49 43.2641 128.703C43.5216 127.916 44.3705 127.475 45.1526 127.753C46.2209 128.108 47.3082 128.454 48.4146 128.78C51.0184 129.557 53.7654 130.276 56.5886 130.909C57.3993 131.091 57.9048 131.897 57.7236 132.703C57.5615 133.403 56.9415 133.883 56.2548 133.883ZM33.5545 126.161C33.3351 126.161 33.1157 126.113 32.9059 126.008C29.0812 124.137 25.5235 122.037 22.3569 119.754C21.6893 119.265 21.5271 118.334 22.0136 117.653C22.4905 116.982 23.4252 116.819 24.1024 117.308C27.145 119.495 30.55 121.509 34.2221 123.303C34.9661 123.667 35.2713 124.569 34.9184 125.307C34.6418 125.845 34.1077 126.161 33.5545 126.161ZM85.0212 124.809C84.2009 124.809 83.5237 124.137 83.5237 123.303V122.775C83.5237 118.986 83.3711 115.131 83.0755 111.323C83.0087 110.498 83.6287 109.769 84.4489 109.702C85.2406 109.625 85.9845 110.258 86.0608 111.083C86.3661 114.968 86.5187 118.9 86.5187 122.766V123.303C86.5091 124.137 85.8415 124.809 85.0212 124.809ZM14.2211 112.061C13.8205 112.061 13.4103 111.898 13.1147 111.572C10.3105 108.483 7.89741 105.098 5.9326 101.491C5.532 100.762 5.79907 99.8508 6.52395 99.4479C7.25837 99.0547 8.15494 99.3233 8.55553 100.043C10.4059 103.438 12.6855 106.632 15.3275 109.548C15.8807 110.162 15.8425 111.112 15.2321 111.668C14.946 111.936 14.5835 112.061 14.2211 112.061ZM83.0945 100.704C82.3792 100.704 81.7497 100.187 81.6257 99.4575C80.9294 95.3714 80.0424 91.458 78.9837 87.8419C78.7548 87.0457 79.2031 86.2112 79.9947 85.981C80.7864 85.7317 81.6161 86.2016 81.8451 86.9978C82.9419 90.729 83.848 94.748 84.5634 98.9588C84.7065 99.7741 84.1532 100.551 83.3425 100.695C83.2567 100.695 83.1804 100.704 83.0945 100.704ZM2.75646 91.1031C2.09835 91.1031 1.49746 90.6618 1.31624 90C1.13501 89.3286 0.953794 88.6476 0.791649 87.957C0.267062 85.6933 0 83.4488 0 81.2906C0 79.9957 0.0953794 78.7009 0.286138 77.4347C0.410131 76.6098 1.1827 76.0439 1.98389 76.1782C2.80415 76.3029 3.35735 77.0702 3.23336 77.8855C3.06168 78.9982 2.97584 80.1396 2.97584 81.2906C2.97584 83.2186 3.22382 85.2329 3.70072 87.2663C3.85333 87.9186 4.01547 88.5612 4.19669 89.2039C4.41607 90.0096 3.94871 90.8345 3.15706 91.0551C3.02353 91.0839 2.89 91.1031 2.75646 91.1031ZM76.1604 77.617C75.6072 77.617 75.0731 77.3004 74.8156 76.7633C73.032 73.0129 70.9623 69.6654 68.6827 66.8166C68.1677 66.1739 68.263 65.2244 68.9116 64.7064C69.5507 64.1884 70.4854 64.2844 71.01 64.9366C73.4326 67.9676 75.6263 71.5166 77.5053 75.4684C77.8677 76.2166 77.553 77.1182 76.809 77.4731C76.5992 77.569 76.3798 77.617 76.1604 77.617ZM6.46672 68.1882C6.15197 68.1882 5.82768 68.0923 5.56062 67.8813C4.9025 67.3729 4.77851 66.4329 5.27448 65.7711C7.67804 62.6058 10.8256 59.805 14.6312 57.455C15.337 57.0234 16.2622 57.244 16.6914 57.9538C17.1206 58.6636 16.9012 59.5844 16.1954 60.0256C12.695 62.1838 9.82408 64.7256 7.64943 67.6031C7.36329 67.9868 6.92454 68.1882 6.46672 68.1882ZM61.0428 59.2487C60.7662 59.2487 60.4801 59.1719 60.2226 58.9993C57.056 56.9082 53.5269 55.3736 49.7404 54.4336C48.9392 54.2321 48.4527 53.4168 48.6435 52.6111C48.8438 51.8054 49.6545 51.3162 50.4557 51.5081C54.5666 52.5248 58.4008 54.2034 61.8631 56.4766C62.5498 56.9274 62.7501 57.8674 62.2923 58.558C62.0061 59.0184 61.5293 59.2487 61.0428 59.2487ZM26.401 55.4215C25.7524 55.4215 25.1611 54.9995 24.9703 54.3376C24.7414 53.5415 25.1897 52.707 25.9813 52.4672C29.7488 51.345 33.7071 50.6352 37.7321 50.3283L38.1804 50.3091C38.9148 50.3474 39.6874 50.9517 39.7064 51.7862C39.7255 52.6111 39.0674 53.3017 38.2376 53.3209L37.9133 53.3305C34.1363 53.6087 30.3879 54.2897 26.8207 55.3448C26.6872 55.4023 26.5441 55.4215 26.401 55.4215Z" fill="#C8CAFF"/>
<path d="M386.124 65.656H466.033C476.019 65.656 484.117 73.7995 484.117 83.8421V125.288C484.117 135.331 476.019 143.474 466.033 143.474H413.775L394.976 160.155V143.474H386.115C376.129 143.474 368.031 135.331 368.031 125.288V83.8421C368.04 73.7995 376.138 65.656 386.124 65.656Z" fill="#7786FF"/>
<path d="M397.751 91.314H454.416C455.665 91.314 456.686 90.2973 456.686 89.0311C456.686 87.765 455.675 86.7483 454.416 86.7483H397.751C396.502 86.7483 395.481 87.765 395.481 89.0311C395.481 90.2973 396.502 91.314 397.751 91.314Z" fill="#C8CAFF"/>
<path d="M397.751 106.507H454.416C455.665 106.507 456.686 105.491 456.686 104.225C456.686 102.958 455.675 101.942 454.416 101.942H397.751C396.502 101.942 395.481 102.958 395.481 104.225C395.481 105.491 396.502 106.507 397.751 106.507Z" fill="#C8CAFF"/>
<path d="M446.099 121.701H454.406C455.656 121.701 456.676 120.684 456.676 119.418C456.676 118.152 455.665 117.135 454.406 117.135H446.099C444.849 117.135 443.829 118.152 443.829 119.418C443.829 120.684 444.849 121.701 446.099 121.701Z" fill="#C8CAFF"/>
<path d="M427.214 121.701H435.521C436.771 121.701 437.791 120.684 437.791 119.418C437.791 118.152 436.78 117.135 435.521 117.135H427.214C425.964 117.135 424.944 118.152 424.944 119.418C424.944 120.684 425.964 121.701 427.214 121.701Z" fill="#C8CAFF"/>
<path d="M397.751 121.701H416.636C417.886 121.701 418.906 120.684 418.906 119.418C418.906 118.152 417.895 117.135 416.636 117.135H397.751C396.502 117.135 395.481 118.152 395.481 119.418C395.481 120.684 396.502 121.701 397.751 121.701Z" fill="#C8CAFF"/>
<path d="M376.014 148.433H314.847C308.829 148.433 303.955 153.335 303.955 159.387V194.858C303.955 200.642 308.409 205.361 314.046 205.773L301.437 226.559L334.677 205.812H376.014C382.033 205.812 386.906 200.91 386.906 194.858V159.387C386.906 153.335 382.033 148.433 376.014 148.433Z" fill="#C8CAFF"/>
<path d="M350.551 173.665C353.379 170.822 353.379 166.212 350.551 163.369C347.724 160.526 343.141 160.526 340.314 163.369C337.487 166.212 337.487 170.822 340.314 173.665C343.141 176.508 347.724 176.508 350.551 173.665Z" fill="#7786FF" stroke="#7786FF" stroke-width="2.7611" stroke-miterlimit="10" stroke-linecap="round" stroke-linejoin="round"/>
<path d="M362.547 193.016H328.315C328.315 186.925 333.227 181.986 339.284 181.986H351.578C357.635 181.976 362.547 186.916 362.547 193.016Z" fill="#7786FF" stroke="#7786FF" stroke-width="2.7611" stroke-miterlimit="10" stroke-linecap="round" stroke-linejoin="round"/>
<path d="M302.181 90.7386C300.159 90.7386 298.127 90.5276 296.153 90.1247C295.342 89.9521 294.827 89.1559 294.989 88.3502C295.161 87.5349 295.962 87.0361 296.754 87.18C299.825 87.8227 303.068 87.909 306.139 87.439C306.96 87.3239 307.713 87.8802 307.837 88.7051C307.961 89.53 307.398 90.2878 306.578 90.4125C305.138 90.6331 303.659 90.7386 302.181 90.7386ZM315.754 87.228C315.229 87.228 314.714 86.9498 314.437 86.451C314.037 85.7221 314.304 84.8108 315.019 84.408C317.785 82.8733 320.227 80.8686 322.306 78.4515C322.84 77.8184 323.794 77.7513 324.414 78.298C325.044 78.8351 325.11 79.7847 324.567 80.4178C322.268 83.1035 319.54 85.3288 316.469 87.0457C316.24 87.1704 315.992 87.228 315.754 87.228ZM287.254 86.4223C286.987 86.4223 286.711 86.3455 286.463 86.1921C283.487 84.3121 280.892 81.9333 278.746 79.1229C278.241 78.4611 278.365 77.5211 279.023 77.0127C279.681 76.5043 280.616 76.629 281.121 77.2909C283.057 79.8135 285.385 81.9525 288.065 83.6502C288.761 84.0915 288.971 85.0219 288.532 85.7221C288.237 86.1729 287.75 86.4223 287.254 86.4223ZM328.477 72.3511C328.305 72.3511 328.134 72.3223 327.953 72.2552C327.18 71.9674 326.789 71.1041 327.075 70.3176C328.172 67.3537 328.725 64.2268 328.725 61.0327C328.725 60.2078 329.393 59.5268 330.223 59.5268C331.043 59.5268 331.72 60.1982 331.72 61.0327C331.72 64.5913 331.1 68.0635 329.879 71.3727C329.66 71.977 329.088 72.3511 328.477 72.3511ZM275.379 70.8643C274.74 70.8643 274.149 70.4519 273.949 69.7996C273.081 66.9701 272.642 64.0254 272.642 61.0423C272.642 60.486 272.661 59.9297 272.69 59.3829C272.737 58.558 273.481 57.9346 274.264 57.9729C275.084 58.0209 275.723 58.7307 275.666 59.5556C275.637 60.0448 275.627 60.5435 275.627 61.0423C275.627 63.728 276.028 66.385 276.801 68.9172C277.049 69.7133 276.6 70.5478 275.809 70.7972C275.675 70.8356 275.523 70.8643 275.379 70.8643ZM329.402 55.738C328.735 55.738 328.124 55.2776 327.953 54.5966C327.19 51.5081 325.902 48.6113 324.109 45.9832C323.641 45.3021 323.813 44.3621 324.5 43.8922C325.177 43.4222 326.112 43.5948 326.579 44.2854C328.573 47.2109 330.003 50.4338 330.852 53.8676C331.052 54.6734 330.566 55.4887 329.765 55.6901C329.641 55.7285 329.517 55.738 329.402 55.738ZM276.467 51.2683C276.266 51.2683 276.066 51.2299 275.866 51.1436C275.112 50.8079 274.76 49.9254 275.093 49.1677C276.495 45.9256 278.451 42.9905 280.902 40.4391C281.474 39.8348 282.418 39.8252 283.01 40.4007C283.601 40.9762 283.62 41.9258 283.048 42.5205C280.845 44.813 279.09 47.4507 277.831 50.3666C277.592 50.9325 277.039 51.2683 276.467 51.2683ZM318.396 39.5279C318.1 39.5279 317.795 39.4415 317.528 39.2497C314.952 37.4081 312.091 36.0556 309.039 35.2403C308.238 35.0293 307.77 34.2044 307.98 33.3987C308.2 32.6026 309.01 32.123 309.811 32.334C313.216 33.2452 316.393 34.7511 319.264 36.8038C319.941 37.2834 320.093 38.2234 319.616 38.9044C319.321 39.3073 318.863 39.5279 318.396 39.5279ZM290.001 37.1299C289.448 37.1299 288.914 36.8134 288.656 36.2762C288.294 35.5281 288.609 34.6265 289.353 34.2716C292.519 32.7369 295.905 31.7873 299.415 31.4612C300.207 31.3844 300.97 31.9887 301.046 32.8232C301.122 33.6481 300.521 34.3867 299.692 34.4634C296.535 34.7607 293.492 35.6048 290.65 36.986C290.44 37.082 290.22 37.1299 290.001 37.1299Z" fill="#7786FF"/>
<path d="M302.181 46.76C291.355 46.76 282.581 52.5918 282.581 59.7857C282.581 59.7953 282.581 59.8145 282.581 59.8241C282.59 61.7041 284.059 62.9894 285.442 62.3947L290.583 60.1886C291.823 59.661 292.424 57.8482 291.861 56.3135L291.231 54.5773C291.231 54.5773 300.684 56.2751 313.045 54.5773L312.406 56.8026C312.005 58.2126 312.53 59.7857 313.598 60.3708L318.682 63.162C319.922 63.843 321.362 62.9318 321.648 61.2341C321.724 60.7545 321.772 60.2749 321.772 59.7761C321.782 52.5918 313.007 46.76 302.181 46.76Z" fill="#7786FF"/>
<path d="M315.754 75.3149H288.589L292.614 62.6345C293.368 60.2557 295.562 58.6443 298.051 58.6443H306.301C308.781 58.6443 310.985 60.2557 311.738 62.6345L315.754 75.3149Z" fill="#C8CAFF"/>
<path d="M477.24 245.215C475.209 245.215 473.177 245.004 471.203 244.591C470.392 244.419 469.877 243.622 470.039 242.817C470.211 242.001 471.012 241.493 471.804 241.647C474.865 242.289 478.127 242.375 481.189 241.905C482.009 241.79 482.763 242.347 482.887 243.172C483.011 243.997 482.448 244.754 481.628 244.879C480.207 245.1 478.728 245.215 477.24 245.215ZM490.813 241.704C490.288 241.704 489.773 241.426 489.506 240.927C489.106 240.198 489.363 239.287 490.088 238.884C492.854 237.34 495.305 235.335 497.375 232.928C497.909 232.294 498.853 232.227 499.483 232.774C500.112 233.311 500.179 234.261 499.636 234.894C497.337 237.58 494.609 239.805 491.538 241.522C491.299 241.647 491.051 241.704 490.813 241.704ZM462.323 240.898C462.056 240.898 461.779 240.822 461.531 240.668C458.556 238.788 455.961 236.409 453.815 233.599C453.31 232.937 453.434 231.997 454.092 231.489C454.75 230.98 455.685 231.105 456.19 231.767C458.117 234.29 460.454 236.429 463.124 238.126C463.821 238.568 464.03 239.498 463.592 240.198C463.305 240.649 462.819 240.898 462.323 240.898ZM503.536 226.827C503.365 226.827 503.193 226.798 503.012 226.731C502.239 226.443 501.848 225.58 502.134 224.794C503.231 221.83 503.784 218.703 503.784 215.509C503.784 214.684 504.452 214.003 505.282 214.003C506.102 214.003 506.779 214.674 506.779 215.509C506.779 219.067 506.159 222.54 504.939 225.849C504.719 226.453 504.147 226.827 503.536 226.827ZM450.439 225.331C449.8 225.331 449.208 224.918 449.008 224.266C448.14 221.437 447.701 218.492 447.701 215.509C447.701 214.952 447.72 214.396 447.749 213.849C447.797 213.025 448.608 212.391 449.323 212.43C450.143 212.478 450.782 213.188 450.734 214.012C450.706 214.511 450.696 215.01 450.696 215.509C450.696 218.195 451.087 220.842 451.869 223.384C452.117 224.18 451.669 225.014 450.878 225.264C450.734 225.312 450.582 225.331 450.439 225.331ZM504.471 210.214C503.804 210.214 503.193 209.754 503.021 209.073C502.258 205.994 500.971 203.097 499.178 200.469C498.71 199.788 498.882 198.848 499.569 198.378C500.246 197.908 501.181 198.08 501.648 198.771C503.641 201.697 505.072 204.919 505.921 208.353C506.121 209.159 505.635 209.974 504.834 210.176C504.71 210.195 504.586 210.214 504.471 210.214ZM451.526 205.735C451.326 205.735 451.126 205.696 450.925 205.61C450.172 205.274 449.819 204.392 450.153 203.634C451.564 200.392 453.52 197.457 455.961 194.906C456.534 194.301 457.478 194.292 458.069 194.867C458.661 195.443 458.68 196.392 458.107 196.987C455.914 199.279 454.149 201.917 452.89 204.833C452.652 205.399 452.108 205.735 451.526 205.735ZM493.464 194.004C493.169 194.004 492.864 193.918 492.597 193.726C490.012 191.875 487.16 190.532 484.108 189.707C483.307 189.496 482.839 188.671 483.049 187.865C483.259 187.069 484.079 186.599 484.88 186.8C488.276 187.712 491.461 189.218 494.332 191.27C495.01 191.75 495.162 192.69 494.685 193.371C494.39 193.783 493.932 194.004 493.464 194.004ZM465.07 191.596C464.517 191.596 463.983 191.28 463.725 190.743C463.363 189.995 463.677 189.093 464.421 188.738C467.588 187.203 470.974 186.254 474.484 185.928C475.323 185.851 476.039 186.465 476.115 187.29C476.191 188.115 475.581 188.853 474.761 188.93C471.603 189.227 468.561 190.071 465.719 191.453C465.509 191.548 465.289 191.596 465.07 191.596Z" fill="#7786FF"/>
<path d="M494.39 210.156H459.624V229.983H494.39V210.156Z" fill="#C8CAFF"/>
<path d="M489.621 208.593V206.166C489.621 204.382 491.061 202.934 492.835 202.934C494.609 202.934 496.049 204.382 496.049 206.166V210.185H489.621" fill="#7786FF"/>
<path d="M489.687 206.118V226.722H465.986V206.118C465.986 204.334 467.426 202.886 469.2 202.886H492.635L491.986 203.02C490.66 203.414 489.687 204.651 489.687 206.118Z" fill="#C6CBFA"/>
<path d="M472.71 206.233H467.454V211.662H472.71V206.233Z" fill="#7786FF"/>
<path d="M474.322 206.205H487.684" stroke="#7786FF" stroke-width="0.6576" stroke-miterlimit="10" stroke-linecap="round" stroke-linejoin="round"/>
<path d="M474.322 208.037H487.684" stroke="#7786FF" stroke-width="0.6576" stroke-miterlimit="10" stroke-linecap="round" stroke-linejoin="round"/>
<path d="M474.322 209.859H487.684" stroke="#7786FF" stroke-width="0.6576" stroke-miterlimit="10" stroke-linecap="round" stroke-linejoin="round"/>
<path d="M474.446 211.691H487.808" stroke="#7786FF" stroke-width="0.6576" stroke-miterlimit="10" stroke-linecap="round" stroke-linejoin="round"/>
<path d="M467.454 213.495H487.684" stroke="#7786FF" stroke-width="0.6576" stroke-miterlimit="10" stroke-linecap="round" stroke-linejoin="round"/>
<path d="M467.454 215.317H487.684" stroke="#7786FF" stroke-width="0.6576" stroke-miterlimit="10" stroke-linecap="round" stroke-linejoin="round"/>
<path d="M467.454 217.101H487.684" stroke="#7786FF" stroke-width="0.6576" stroke-miterlimit="10" stroke-linecap="round" stroke-linejoin="round"/>
<path d="M467.454 218.933H477.288" stroke="#7786FF" stroke-width="0.6576" stroke-miterlimit="10" stroke-linecap="round" stroke-linejoin="round"/>
<path d="M485.853 229.983H459.624V210.156L485.853 229.983Z" fill="#7786FF"/>
<path d="M468.17 229.983H494.389V210.156L468.17 229.983Z" fill="#7786FF"/>
<path d="M494.39 229.983H477.002H459.614L475.228 221.6C476.296 220.861 477.698 220.861 478.766 221.6L494.39 229.983Z" fill="#7786FF"/>
<path d="M197.958 188.111C197.958 188.111 156.36 190.928 153.06 226.096C149.76 261.264 184.965 259.118 195.134 258.971C199.746 258.905 208.949 258.652 217.632 258.395C236.054 257.85 250.516 250.84 253.502 233.368C253.859 231.32 254.01 229.243 253.955 227.164C253.4 208.314 237.815 184.015 197.958 188.111Z" fill="#5468FF"/>
<path d="M238.174 228.101L184.941 233.065C183.614 233.188 182.272 233.059 180.993 232.684C179.713 232.309 178.521 231.696 177.484 230.88C176.447 230.064 175.585 229.061 174.949 227.928C174.312 226.795 173.912 225.554 173.773 224.277C173.633 223 173.755 221.71 174.134 220.483C174.513 219.255 175.14 218.113 175.979 217.123C176.819 216.132 177.855 215.312 179.028 214.709C180.2 214.107 181.487 213.733 182.814 213.61L236.047 208.648C237.374 208.524 238.716 208.653 239.996 209.028C241.275 209.402 242.468 210.015 243.505 210.831C244.542 211.647 245.404 212.651 246.041 213.784C246.678 214.917 247.077 216.158 247.217 217.436C247.356 218.713 247.233 220.002 246.854 221.229C246.475 222.457 245.848 223.598 245.008 224.589C244.168 225.579 243.133 226.399 241.96 227.002C240.788 227.604 239.501 227.978 238.174 228.101Z" fill="#161359"/>
<path d="M191.062 224.857C192.853 225.051 194.457 223.814 194.643 222.093C194.83 220.372 193.53 218.82 191.739 218.625C189.948 218.431 188.345 219.668 188.158 221.389C187.971 223.11 189.272 224.662 191.062 224.857Z" fill="white"/>
<path d="M228.251 221.378C230.042 221.572 231.646 220.335 231.832 218.614C232.019 216.893 230.719 215.341 228.928 215.146C227.137 214.952 225.534 216.189 225.347 217.91C225.16 219.631 226.461 221.183 228.251 221.378Z" fill="white"/>
<path d="M216.738 221.018C216.947 221.909 216.835 222.839 216.422 223.656C215.998 224.687 215.291 225.587 214.375 226.26C213.46 226.933 212.371 227.355 211.222 227.479C210.074 227.604 208.909 227.427 207.851 226.968C206.793 226.509 205.881 225.785 205.212 224.872C204.606 224.165 204.266 223.284 204.247 222.372C204.613 223.157 205.058 223.905 205.576 224.607C206.176 225.32 206.931 225.898 207.786 226.302C208.833 226.776 209.995 226.961 211.141 226.837C212.286 226.713 213.371 226.284 214.272 225.599C215.005 225.023 215.596 224.299 216.004 223.478C216.333 222.684 216.579 221.86 216.738 221.018Z" fill="white"/>
<path d="M211.847 208.369C211.309 207.156 210.855 205.911 210.489 204.642C209.491 201.638 208.076 198.775 206.283 196.129C204.559 193.453 202.129 191.261 199.244 189.777C198.006 189.244 196.736 188.785 195.44 188.402C195.811 188.372 196.185 188.403 196.546 188.495C197.542 188.679 198.513 188.977 199.438 189.381C202.483 190.795 205.048 193.02 206.824 195.79C208.654 198.479 210.035 201.425 210.919 204.519C211.267 205.695 211.51 206.656 211.666 207.322C211.781 207.661 211.842 208.014 211.847 208.369Z" fill="white"/>
<path d="M207.708 258.679C207.634 258.594 208.923 257.639 210.584 255.73C212.744 253.245 214.3 250.326 215.141 247.183C215.899 244.013 216.225 240.758 216.109 237.499C215.978 236.143 215.937 234.78 215.986 233.42C216.119 233.767 216.196 234.131 216.216 234.5C216.318 235.2 216.454 236.209 216.566 237.477C216.82 240.788 216.552 244.113 215.77 247.339C214.917 250.573 213.258 253.552 210.937 256.021C210.239 256.762 209.48 257.449 208.668 258.073C208.383 258.322 208.059 258.526 207.708 258.679Z" fill="white"/>
<g opacity="0.3">
<g opacity="0.3">
<path opacity="0.3" d="M247.269 247.543C242.786 244.196 237.494 242.006 231.899 241.185C226.328 240.376 220.688 240.136 215.075 240.471C202.086 240.932 188.682 242.415 177.515 248.731C174.257 250.366 171.539 252.837 169.66 255.873C169.66 255.873 174.915 258.642 185.948 259.129C196.982 259.617 219.995 258.291 219.995 258.291C219.995 258.291 231.757 257.672 238.799 253.691C245.84 249.71 247.269 247.543 247.269 247.543Z" fill="#161359"/>
</g>
</g>
<path d="M250.48 216.792C250.647 217.397 250.737 218.019 250.751 218.644C250.833 220.449 250.467 222.243 249.682 223.877C248.393 226.471 246.187 228.534 243.455 229.701C240.31 231.133 236.359 231.673 232.081 232.073L201.94 235.069L193.227 235.927C190.255 236.185 187.24 236.61 184.096 236.659C180.843 236.852 177.612 235.956 174.95 234.124C172.312 232.084 170.558 229.172 170.038 225.965C169.511 222.756 170.273 219.485 172.17 216.817C174.009 214.245 176.7 212.35 179.811 211.439C181.311 211.049 182.846 210.796 184.398 210.682L188.89 210.172L197.586 209.185L213.667 207.37C218.716 206.889 223.359 206.043 227.676 205.688C229.729 205.505 231.794 205.46 233.856 205.552C235.703 205.605 237.539 205.866 239.326 206.329C242.212 207.047 244.865 208.462 247.031 210.441C248.372 211.714 249.393 213.265 250.012 214.973C250.18 215.412 250.308 215.863 250.395 216.322C250.438 216.475 250.467 216.632 250.482 216.789C250.432 216.801 250.341 216.155 249.89 215.015C249.229 213.353 248.192 211.851 246.855 210.617C244.698 208.703 242.075 207.343 239.234 206.663C237.47 206.223 235.66 205.982 233.841 205.945C231.798 205.87 229.754 205.929 227.722 206.122C223.442 206.499 218.795 207.372 213.748 207.877L197.671 209.749L188.974 210.757L184.482 211.276C182.966 211.387 181.466 211.636 180.001 212.018C177.029 212.892 174.458 214.704 172.701 217.164C170.899 219.701 170.175 222.812 170.675 225.863C171.17 228.913 172.833 231.683 175.338 233.627C177.885 235.377 180.976 236.229 184.085 236.04C187.154 235.998 190.188 235.579 193.159 235.327L201.874 234.49L232.03 231.632C235.895 231.481 239.702 230.72 243.3 229.38C245.977 228.265 248.155 226.279 249.454 223.767C250.249 222.171 250.649 220.418 250.624 218.642C250.601 217.429 250.442 216.796 250.48 216.792Z" fill="white"/>
<path d="M152.997 231.972C153.641 231.385 154.373 230.893 155.169 230.514C158.869 228.446 162.934 227.042 167.166 226.37C168.033 226.175 168.926 226.106 169.816 226.163C169.85 226.359 165.839 226.89 161.193 228.506C156.539 230.101 153.104 232.142 152.997 231.972Z" fill="white"/>
<path d="M200.1 193.32C200.221 193.261 200.361 193.25 200.491 193.289C200.62 193.329 200.729 193.415 200.794 193.53C200.859 193.645 200.875 193.779 200.839 193.905C200.802 194.03 200.716 194.136 200.599 194.201C200.481 194.265 200.342 194.282 200.211 194.249C200.079 194.216 199.966 194.135 199.895 194.023C199.825 193.911 199.802 193.778 199.832 193.651C199.862 193.524 199.943 193.414 200.057 193.344" fill="white"/>
<path d="M205.59 203.109C205.711 203.051 205.851 203.04 205.98 203.079C206.11 203.118 206.219 203.205 206.284 203.32C206.349 203.435 206.365 203.569 206.328 203.694C206.292 203.82 206.206 203.926 206.088 203.99C205.971 204.055 205.832 204.072 205.7 204.039C205.569 204.006 205.456 203.925 205.385 203.813C205.314 203.701 205.291 203.567 205.322 203.441C205.352 203.314 205.432 203.203 205.546 203.134" fill="white"/>
<path d="M163.66 224.292C163.78 224.234 163.92 224.224 164.049 224.263C164.179 224.303 164.287 224.39 164.351 224.505C164.416 224.62 164.431 224.754 164.394 224.879C164.356 225.004 164.27 225.11 164.152 225.173C164.035 225.237 163.896 225.254 163.765 225.22C163.634 225.186 163.522 225.104 163.452 224.992C163.382 224.88 163.36 224.747 163.391 224.62C163.422 224.494 163.503 224.384 163.617 224.315" fill="white"/>
<path d="M155.115 227.579C155.235 227.523 155.374 227.515 155.501 227.556C155.628 227.598 155.734 227.685 155.796 227.8C155.858 227.914 155.871 228.048 155.832 228.171C155.793 228.294 155.706 228.397 155.589 228.458C155.472 228.52 155.334 228.534 155.205 228.499C155.076 228.464 154.965 228.382 154.898 228.27C154.83 228.158 154.81 228.025 154.843 227.901C154.875 227.776 154.957 227.669 155.071 227.602" fill="white"/>
<g opacity="0.3">
<g opacity="0.3">
<path opacity="0.3" d="M208.923 189.877C208.974 190.334 205.189 190.945 199.195 192.097C193.239 193.282 184.95 195.076 177.01 199.354C173.315 201.373 169.96 203.915 167.057 206.896C164.687 209.329 162.701 212.084 161.163 215.075C158.553 220.225 158.4 223.971 157.847 223.923C157.644 223.916 157.443 222.979 157.489 221.268C157.609 218.839 158.14 216.449 159.06 214.19C160.412 210.819 162.362 207.702 164.824 204.978C167.827 201.638 171.404 198.819 175.4 196.64C179.373 194.525 183.611 192.902 188.015 191.809C191.563 190.917 195.178 190.286 198.831 189.922C205.032 189.309 208.883 189.478 208.923 189.877Z" fill="white"/>
</g>
</g>
<g opacity="0.3">
<g opacity="0.3">
<path opacity="0.3" d="M163.343 241.993C162.737 242.6 160.477 241.419 159.006 238.895C157.535 236.37 157.654 233.915 158.512 233.738C159.394 233.538 160.583 235.285 161.824 237.385C163.04 239.493 163.982 241.378 163.343 241.993Z" fill="white"/>
</g>
</g>
<path d="M292.074 208.815C292.074 208.815 287.65 196.842 288.587 195.516C289.523 194.19 306.086 186.434 306.086 186.434C306.086 186.434 306.158 175.751 306.284 174.291C306.41 172.856 309.612 174.163 309.81 175.632C310.009 177.1 313.442 190.275 311.439 192.134C308.936 194.053 306.293 195.774 303.529 197.282L306.109 205.276L292.074 208.815Z" fill="#5468FF"/>
<path d="M250.67 292.275C262.635 289.645 269.958 287.474 281.99 284.927C288.659 283.517 296.921 281.358 302.809 279.402C306.74 278.095 310.733 275.827 312.963 272.147C314.863 269.017 315.195 265.081 315.32 261.291C315.903 243.508 310.628 225.012 304.319 208.044L291.363 213.394L291.057 258.621L244.372 269.909L248.944 290.63C248.92 290.86 248.951 291.096 249.034 291.317C249.116 291.538 249.248 291.739 249.418 291.9C249.587 292.062 249.79 292.181 250.008 292.246C250.226 292.312 250.453 292.321 250.67 292.275Z" fill="#5468FF"/>
<path d="M291.098 257.697C291.186 258.047 291.325 258.384 291.511 258.695C291.943 259.581 292.45 260.428 293.025 261.227C293.873 262.423 294.84 263.526 295.909 264.515C297.229 265.718 298.677 266.757 300.219 267.61C303.043 269.12 306.113 269.991 309.215 270.163C310.148 270.221 311.079 270.203 312 270.106C312.343 270.102 312.679 270.043 312.998 269.93C312.984 269.812 311.543 269.939 309.222 269.716C306.201 269.42 303.23 268.515 300.475 267.053C298.977 266.223 297.563 265.226 296.26 264.082C295.203 263.136 294.231 262.091 293.358 260.962C291.877 259.025 291.201 257.642 291.098 257.697Z" fill="white"/>
<path d="M248.031 272.803C248.075 272.979 258.338 270.979 270.952 268.336C283.567 265.693 293.759 263.408 293.718 263.228C293.677 263.049 283.414 265.05 270.795 267.694C258.176 270.339 247.986 272.626 248.031 272.803Z" fill="white"/>
<path d="M301.145 210.313C301.156 210.518 301.194 210.722 301.258 210.92L301.691 212.633C302.082 214.114 302.639 216.26 303.267 218.923C304.549 224.244 306.088 231.64 307.281 239.869C307.865 243.986 308.308 247.918 308.632 251.491C308.912 255.069 309.13 258.293 309.186 260.997C309.246 262.348 309.25 263.572 309.251 264.647C309.253 265.721 309.269 266.646 309.247 267.399C309.242 268.095 309.238 268.67 309.235 269.141C309.22 269.344 309.233 269.55 309.272 269.753C309.293 269.755 309.321 269.55 309.357 269.155L309.483 267.423C309.54 266.672 309.573 265.746 309.592 264.671C309.61 263.595 309.643 262.371 309.615 261.015C309.615 258.302 309.438 255.062 309.19 251.477C308.899 247.883 308.468 243.943 307.879 239.814C306.864 232.769 305.462 225.765 303.681 218.838C303.001 216.183 302.377 214.044 301.915 212.578C301.697 211.904 301.517 211.348 301.365 210.896C301.317 210.694 301.243 210.497 301.145 210.313Z" fill="white"/>
<path d="M285.816 266.987C285.688 266.989 285.561 266.94 285.462 266.848C285.364 266.757 285.301 266.631 285.288 266.498C285.274 266.365 285.312 266.235 285.391 266.135C285.471 266.036 285.587 265.975 285.714 265.966C285.842 265.957 285.97 266 286.073 266.086C286.176 266.173 286.244 266.295 286.263 266.428C286.283 266.561 286.252 266.693 286.177 266.797C286.103 266.901 285.99 266.968 285.864 266.983" fill="white"/>
<path d="M305.381 260.678C305.254 260.679 305.128 260.628 305.031 260.536C304.934 260.445 304.873 260.319 304.862 260.187C304.85 260.055 304.888 259.926 304.968 259.828C305.049 259.73 305.165 259.671 305.291 259.664C305.418 259.656 305.545 259.701 305.646 259.788C305.747 259.875 305.813 259.997 305.831 260.129C305.849 260.261 305.817 260.392 305.742 260.494C305.666 260.596 305.554 260.661 305.428 260.675" fill="white"/>
<path d="M305.231 243.982C305.103 243.984 304.976 243.935 304.877 243.843C304.778 243.752 304.716 243.626 304.702 243.493C304.689 243.36 304.726 243.23 304.806 243.13C304.886 243.031 305.001 242.97 305.129 242.961C305.256 242.951 305.385 242.995 305.487 243.081C305.59 243.167 305.658 243.29 305.678 243.423C305.697 243.556 305.666 243.688 305.592 243.792C305.517 243.896 305.405 243.962 305.278 243.978" fill="white"/>
<path d="M274.008 270.144C273.879 270.15 273.75 270.102 273.648 270.012C273.546 269.922 273.48 269.796 273.464 269.662C273.447 269.527 273.482 269.394 273.56 269.291C273.639 269.189 273.755 269.124 273.883 269.112C274.012 269.1 274.143 269.141 274.248 269.226C274.354 269.311 274.425 269.434 274.448 269.568C274.47 269.702 274.442 269.837 274.368 269.944C274.295 270.051 274.183 270.121 274.055 270.139" fill="white"/>
<path d="M260.698 273.773C260.57 273.772 260.451 273.823 260.364 273.916C260.277 274.008 260.231 274.134 260.235 274.266C260.239 274.399 260.292 274.528 260.384 274.626C260.476 274.724 260.599 274.783 260.727 274.79C260.855 274.797 260.977 274.752 261.068 274.665C261.159 274.577 261.211 274.454 261.214 274.322C261.216 274.189 261.169 274.058 261.081 273.956C260.994 273.854 260.873 273.789 260.746 273.776" fill="white"/>
<path d="M306.503 208.447C302.38 210.789 298.087 212.813 293.655 214.505C291.894 215.196 289.716 215.784 288.178 214.492C287.653 213.984 287.268 213.339 287.07 212.632C286.871 211.925 286.867 211.186 287.058 210.5C287.465 209.135 288.207 207.922 289.212 206.976C292.15 203.892 295.918 201.795 300.077 200.929C301.54 200.548 303.091 200.554 304.594 200.947C305.342 201.154 306.037 201.559 306.607 202.122C307.178 202.685 307.606 203.386 307.847 204.156C308.102 204.953 308.109 205.8 307.867 206.572C307.625 207.344 307.147 208 306.503 208.444" fill="#161359"/>
<path d="M287.593 212.609C287.689 212.669 288.302 211.465 289.672 209.849C291.441 207.735 293.663 206.086 296.175 205.024C298.686 203.962 301.425 203.513 304.191 203.709C306.318 203.848 307.62 204.241 307.643 204.131C307.652 204.091 307.338 203.949 306.748 203.765C305.913 203.513 305.061 203.337 304.204 203.24C301.352 202.91 298.505 203.311 295.912 204.407C293.318 205.504 291.057 207.263 289.326 209.532C288.803 210.21 288.341 210.939 287.945 211.709C287.672 212.264 287.559 212.586 287.593 212.609Z" fill="#393D8E"/>
<path d="M244.036 298.386C246.716 297.89 249.166 296.598 251.127 294.647C253.087 292.696 254.486 290.158 255.173 287.304C255.859 284.45 255.809 281.385 255.027 278.437C254.246 275.489 252.762 272.766 250.733 270.559C249.035 268.713 246.596 267.133 244.388 269.239C243.703 269.921 243.19 270.786 242.893 271.76C240.117 280.201 240.526 289.741 244.036 298.386Z" fill="#161359"/>
<path d="M250.71 294.882C250.724 294.898 250.664 294.983 250.531 295.124C250.335 295.336 250.11 295.515 249.862 295.656C249.67 295.767 249.45 295.82 249.224 295.81C248.958 295.772 248.698 295.674 248.462 295.523C248.186 295.352 247.952 295.108 247.783 294.817L247.273 293.93C245.401 290.65 244.204 287.019 243.771 283.303C243.3 279.582 243.647 275.864 244.782 272.45C245.144 271.405 245.773 270.509 246.602 269.857C246.896 269.603 247.257 269.448 247.644 269.41C247.668 269.466 247.28 269.594 246.747 270.057C246.021 270.75 245.479 271.639 245.17 272.644C244.183 276.022 243.905 279.647 244.355 283.272C244.786 286.903 245.898 290.46 247.623 293.725C247.968 294.356 248.198 294.973 248.617 295.221C248.78 295.361 248.972 295.454 249.173 295.49C249.374 295.526 249.576 295.503 249.757 295.425C250.376 295.137 250.677 294.822 250.71 294.882Z" fill="#393D8E"/>
<path d="M246.449 267.916C248.761 268.85 244.879 303.249 242.46 320.759C241.163 330.144 239.389 339.886 233.692 347.462C227.344 355.911 216.505 360.556 205.922 360.121C193.187 359.599 181.353 352.145 173.707 341.98C166.061 331.814 162.249 319.196 160.834 306.573C159.418 293.95 160.258 281.199 161.103 268.528C161.099 268.534 204.423 250.965 246.449 267.916Z" fill="#5468FF"/>
<g opacity="0.2">
<g opacity="0.2">
<path opacity="0.2" d="M161.211 285.378C159.722 296.436 160.295 309.456 162.858 319.104C165.63 329.543 170.264 339.197 178.812 347.763C181.217 350.004 183.806 352.04 186.552 353.85C188.909 355.394 191.436 356.663 194.083 357.632C198.392 359.386 201.603 354.188 202.972 349.755C204.34 345.322 203.212 340.402 200.848 336.405C198.318 332.496 195.104 329.071 191.359 326.294C187.622 323.526 184.043 320.552 180.639 317.385C175.13 311.547 171.003 304.554 168.563 296.92C166.137 289.311 164.285 281.533 163.023 273.65" fill="#161359"/>
</g>
</g>
<path d="M185.317 335.5C185.433 335.443 185.567 335.435 185.69 335.475C185.813 335.516 185.915 335.603 185.975 335.718C186.034 335.833 186.046 335.966 186.008 336.09C185.97 336.213 185.885 336.317 185.772 336.379C185.658 336.441 185.525 336.456 185.4 336.422C185.275 336.387 185.169 336.305 185.104 336.193C185.039 336.081 185.021 335.948 185.052 335.823C185.084 335.698 185.164 335.59 185.274 335.523" fill="white"/>
<path d="M200.688 336.56C200.804 336.501 200.939 336.49 201.064 336.529C201.188 336.569 201.292 336.655 201.354 336.77C201.416 336.884 201.43 337.018 201.394 337.143C201.357 337.268 201.273 337.374 201.16 337.438C201.046 337.502 200.912 337.52 200.786 337.486C200.66 337.453 200.551 337.372 200.484 337.26C200.417 337.148 200.397 337.015 200.427 336.888C200.458 336.762 200.536 336.652 200.647 336.583" fill="white"/>
<path d="M219.122 322.629C219.238 322.571 219.373 322.56 219.498 322.599C219.622 322.638 219.726 322.725 219.788 322.839C219.85 322.954 219.864 323.088 219.827 323.213C219.791 323.338 219.707 323.444 219.594 323.508C219.48 323.572 219.346 323.59 219.22 323.556C219.093 323.523 218.985 323.442 218.918 323.33C218.851 323.218 218.831 323.085 218.861 322.958C218.891 322.832 218.97 322.722 219.081 322.653" fill="white"/>
<path d="M215.662 282.905C215.778 282.849 215.912 282.84 216.035 282.881C216.158 282.922 216.26 283.009 216.319 283.124C216.379 283.239 216.391 283.372 216.353 283.496C216.315 283.619 216.23 283.723 216.117 283.785C216.003 283.847 215.87 283.862 215.745 283.827C215.62 283.792 215.514 283.71 215.449 283.599C215.384 283.487 215.365 283.354 215.397 283.229C215.429 283.104 215.509 282.996 215.619 282.929" fill="white"/>
<path d="M230.641 290.987C230.758 290.929 230.893 290.918 231.017 290.957C231.142 290.996 231.246 291.082 231.307 291.197C231.369 291.312 231.383 291.446 231.347 291.571C231.311 291.696 231.227 291.802 231.113 291.866C231 291.93 230.865 291.947 230.739 291.914C230.613 291.881 230.505 291.8 230.438 291.688C230.371 291.576 230.35 291.443 230.381 291.316C230.411 291.19 230.49 291.08 230.6 291.011" fill="white"/>
<path d="M168.454 329.111C168.571 329.05 168.707 329.036 168.834 329.073C168.96 329.11 169.068 329.195 169.132 329.31C169.197 329.425 169.214 329.561 169.18 329.688C169.146 329.815 169.063 329.924 168.949 329.991C168.836 330.058 168.7 330.078 168.572 330.047C168.444 330.016 168.332 329.936 168.262 329.824C168.192 329.713 168.169 329.578 168.197 329.45C168.225 329.321 168.302 329.208 168.413 329.136" fill="white"/>
<path d="M167.331 315.893C167.448 315.834 167.583 315.824 167.707 315.863C167.832 315.902 167.936 315.988 167.998 316.103C168.059 316.218 168.073 316.352 168.037 316.477C168.001 316.602 167.917 316.708 167.803 316.772C167.69 316.836 167.555 316.853 167.429 316.82C167.303 316.787 167.195 316.705 167.128 316.594C167.061 316.482 167.04 316.348 167.071 316.222C167.101 316.095 167.18 315.986 167.29 315.916" fill="white"/>
<path d="M167.499 304.057C167.616 304.001 167.749 303.992 167.872 304.033C167.995 304.074 168.096 304.161 168.156 304.275C168.215 304.39 168.227 304.523 168.189 304.646C168.151 304.769 168.067 304.872 167.953 304.934C167.84 304.996 167.707 305.011 167.583 304.976C167.458 304.942 167.352 304.86 167.287 304.748C167.223 304.637 167.204 304.505 167.236 304.38C167.267 304.255 167.347 304.147 167.457 304.08" fill="white"/>
<path d="M167.737 291.483C167.853 291.421 167.989 291.407 168.116 291.445C168.242 291.482 168.349 291.567 168.414 291.681C168.478 291.796 168.495 291.931 168.461 292.058C168.427 292.185 168.345 292.293 168.231 292.36C168.118 292.427 167.983 292.447 167.855 292.416C167.727 292.385 167.616 292.306 167.546 292.194C167.476 292.083 167.453 291.949 167.481 291.82C167.509 291.692 167.586 291.579 167.696 291.507" fill="white"/>
<path d="M240.279 288.955C240.396 288.893 240.532 288.88 240.658 288.917C240.785 288.954 240.892 289.039 240.956 289.153C241.021 289.268 241.038 289.403 241.004 289.53C240.97 289.657 240.887 289.765 240.774 289.832C240.66 289.899 240.525 289.92 240.397 289.889C240.269 289.858 240.158 289.778 240.088 289.666C240.018 289.555 239.995 289.421 240.023 289.292C240.051 289.164 240.128 289.052 240.238 288.979" fill="white"/>
<path d="M220.09 337.481C220.207 337.422 220.342 337.411 220.466 337.451C220.591 337.49 220.695 337.576 220.757 337.691C220.818 337.806 220.833 337.94 220.796 338.065C220.76 338.19 220.676 338.296 220.562 338.36C220.449 338.424 220.315 338.441 220.188 338.408C220.062 338.374 219.954 338.293 219.887 338.181C219.82 338.07 219.799 337.936 219.83 337.81C219.86 337.683 219.939 337.574 220.049 337.504" fill="white"/>
<path d="M220.435 349.953C220.551 349.896 220.685 349.888 220.808 349.928C220.93 349.969 221.032 350.056 221.091 350.171C221.151 350.285 221.163 350.418 221.125 350.541C221.087 350.664 221.003 350.768 220.889 350.83C220.776 350.892 220.643 350.907 220.518 350.872C220.394 350.837 220.288 350.755 220.223 350.644C220.158 350.532 220.14 350.4 220.171 350.275C220.203 350.15 220.283 350.043 220.393 349.976" fill="white"/>
<g opacity="0.3">
<g opacity="0.3">
<path opacity="0.3" d="M235.954 276.143C236.033 276.525 232.147 277.773 225.651 278.788C221.84 279.371 218.001 279.749 214.149 279.92C204.696 280.345 195.224 279.636 185.939 277.81C182.155 277.068 178.414 276.123 174.732 274.98C168.453 273.004 164.796 271.196 164.931 270.83C165.232 269.909 180.53 275.217 200.214 276.606C219.875 278.16 235.794 275.187 235.954 276.143Z" fill="white"/>
</g>
</g>
<path d="M182.214 350.76C181.996 350.588 181.796 350.394 181.618 350.181C181.24 349.788 180.702 349.19 180.055 348.382C178.179 346.114 176.732 343.525 175.783 340.743C175.17 338.816 174.71 336.845 174.407 334.846C174.01 332.713 173.639 330.426 173.261 328.016C172.52 323.195 171.86 317.87 171.364 312.263C170.52 302.687 170.227 293.072 170.489 283.463C170.604 279.777 170.768 276.797 170.919 274.742L171.116 272.376C171.126 272.099 171.163 271.824 171.227 271.554C171.26 271.83 171.265 272.108 171.242 272.384C171.222 272.989 171.194 273.776 171.162 274.755C171.085 276.813 170.99 279.787 170.93 283.473C170.8 293.061 171.153 302.651 171.987 312.205C172.483 317.798 173.123 323.112 173.831 327.928C174.194 330.335 174.544 332.62 174.918 334.753C175.197 336.732 175.627 338.688 176.204 340.603C177.104 343.356 178.472 345.936 180.247 348.23C180.861 349.054 181.367 349.674 181.713 350.094C181.902 350.299 182.069 350.522 182.214 350.76Z" fill="white"/>
<path d="M214.091 315.921C214.264 315.919 214.519 325.522 214.659 337.365C214.798 349.208 214.778 358.817 214.606 358.818C214.434 358.82 214.177 349.221 214.039 337.373C213.9 325.525 213.919 315.919 214.091 315.921Z" fill="white"/>
<path d="M201.927 260.624C201.963 260.601 202.233 260.939 202.689 261.569C203.146 262.2 203.789 263.123 204.568 264.271C206.135 266.567 208.264 269.762 210.586 273.312L211.447 274.632L211.551 274.794C211.611 274.847 211.654 274.918 211.671 274.997C211.699 275.086 211.722 275.176 211.74 275.267L211.756 275.469C211.782 275.742 211.78 275.996 211.782 276.25C211.781 277.262 211.732 278.224 211.68 279.143C211.575 280.98 211.438 282.628 211.314 284.011C211.189 285.393 211.07 286.509 210.975 287.283C210.956 287.687 210.886 288.088 210.767 288.475C210.696 286.976 210.732 285.474 210.874 283.98C210.942 282.544 211.021 280.904 211.105 279.116C211.141 278.202 211.176 277.239 211.175 276.256C211.171 276.015 211.17 275.76 211.145 275.531L211.132 275.352C211.121 275.319 211.113 275.286 211.109 275.252C211.115 275.191 210.976 275.086 210.929 274.974L210.069 273.659C207.75 270.109 205.679 266.875 204.206 264.517C203.47 263.34 202.884 262.379 202.49 261.709C202.255 261.374 202.065 261.009 201.927 260.624Z" fill="white"/>
<path d="M213.208 333.972C212.706 334.075 212.194 334.124 211.68 334.118C210.696 334.175 209.269 334.217 207.506 334.246C203.979 334.299 199.103 334.237 193.729 333.929C188.355 333.621 183.5 333.116 180.003 332.657C178.254 332.429 176.842 332.22 175.871 332.051C175.361 331.996 174.858 331.889 174.37 331.73C174.882 331.703 175.395 331.729 175.902 331.81L180.053 332.22C183.558 332.567 188.402 332.997 193.764 333.307C199.125 333.618 203.986 333.745 207.506 333.806L211.677 333.876C212.189 333.854 212.703 333.886 213.208 333.972Z" fill="white"/>
<path d="M245.862 291.066C245.879 291.106 245.566 291.281 244.981 291.565C244.153 291.956 243.305 292.306 242.441 292.612C239.589 293.633 236.654 294.407 233.669 294.925C230.689 295.457 227.676 295.788 224.651 295.916C223.401 296.028 222.142 296.009 220.895 295.859C222.128 295.653 223.373 295.526 224.623 295.478C226.922 295.274 230.093 294.932 233.559 294.311C236.515 293.791 239.434 293.085 242.3 292.196C244.496 291.512 245.822 290.976 245.862 291.066Z" fill="white"/>
<path d="M220.384 312.87C226.43 308.023 227.388 299.204 222.523 293.172C217.658 287.14 208.812 286.179 202.766 291.027C196.719 295.874 195.762 304.693 200.627 310.725C205.492 316.757 214.337 317.717 220.384 312.87Z" fill="#161359"/>
<path d="M214.287 311.785C219.741 310.295 222.948 304.681 221.451 299.245C219.954 293.809 214.32 290.61 208.867 292.1C203.413 293.59 200.206 299.204 201.703 304.64C203.2 310.076 208.834 313.275 214.287 311.785Z" fill="white"/>
<path d="M212.452 294.44L218.267 298.592L217.62 305.793L211.159 308.842L205.344 304.69L205.991 297.489L212.452 294.44Z" fill="#5468FF"/>
<g opacity="0.2">
<path opacity="0.2" d="M161.1 268.533C161.1 268.533 204.472 250.691 246.45 267.916C246.45 267.916 225.996 283.455 161.1 268.533Z" fill="#161359"/>
</g>
<path d="M120.271 210.351C120.271 210.351 124.252 198.396 123.247 197.11C122.242 195.824 105.121 188.594 105.121 188.594C105.121 188.594 104.597 178.033 104.409 176.593C104.22 175.178 101.029 176.555 100.89 178.012C100.75 179.469 97.8244 192.586 99.9334 194.371C102.552 196.203 105.305 197.834 108.171 199.252L105.892 207.224L120.271 210.351Z" fill="#5468FF"/>
<path d="M164.944 292.32C152.712 290.037 145.203 288.086 132.907 285.888C126.092 284.67 117.632 282.756 111.584 280.979C107.548 279.792 103.407 277.656 100.992 274.08C98.9355 271.038 98.4333 267.159 98.147 263.417C96.8056 245.865 101.368 227.453 107.042 210.524L120.392 215.467L122.612 260.139L170.379 270.057L166.622 290.649C166.656 290.876 166.635 291.109 166.561 291.33C166.487 291.551 166.362 291.752 166.197 291.917C166.031 292.081 165.831 292.204 165.613 292.274C165.395 292.344 165.165 292.36 164.944 292.32Z" fill="#5468FF"/>
<path d="M122.704 259.606C122.632 259.957 122.507 260.295 122.333 260.61C121.936 261.5 121.462 262.354 120.915 263.162C120.11 264.37 119.178 265.488 118.137 266.495C116.849 267.72 115.422 268.784 113.889 269.663C111.081 271.224 107.987 272.153 104.825 272.386C103.874 272.463 102.922 272.462 101.975 272.385C101.625 272.388 101.277 272.335 100.946 272.229C100.954 272.111 102.433 272.21 104.795 271.941C107.868 271.585 110.858 270.625 113.599 269.114C115.088 268.257 116.482 267.236 117.755 266.07C118.787 265.107 119.727 264.047 120.561 262.904C121.976 260.945 122.595 259.554 122.704 259.606Z" fill="white"/>
<path d="M166.492 273.155C166.457 273.329 156.023 271.562 143.188 269.207C130.354 266.853 119.976 264.804 120.009 264.628C120.041 264.451 130.475 266.219 143.314 268.575C156.153 270.93 166.529 272.981 166.492 273.155Z" fill="white"/>
<path d="M110.495 212.5C110.495 212.705 110.466 212.91 110.411 213.108L110.057 214.825C109.733 216.31 109.274 218.462 108.769 221.131C107.733 226.464 106.54 233.872 105.746 242.104C105.361 246.222 105.111 250.153 104.965 253.723C104.863 257.298 104.807 260.518 104.89 263.216C104.899 264.565 104.957 265.787 105.012 266.858C105.066 267.93 105.098 268.853 105.159 269.604C105.2 270.298 105.234 270.871 105.261 271.341C105.287 271.543 105.285 271.749 105.255 271.952C105.234 271.955 105.194 271.75 105.137 271.358L104.919 269.633C104.821 268.884 104.74 267.962 104.665 266.889C104.59 265.817 104.493 264.596 104.452 263.243C104.312 260.537 104.325 257.302 104.393 253.72C104.505 250.13 104.742 246.191 105.131 242.061C105.805 235.013 106.877 227.999 108.341 221.054C108.9 218.392 109.427 216.246 109.824 214.775C110.012 214.099 110.168 213.541 110.3 213.086C110.338 212.884 110.404 212.686 110.495 212.5Z" fill="white"/>
<path d="M128.226 268.447C128.355 268.446 128.482 268.393 128.578 268.3C128.674 268.207 128.733 268.081 128.741 267.949C128.749 267.817 128.706 267.689 128.621 267.592C128.536 267.496 128.416 267.439 128.287 267.434C128.157 267.428 128.029 267.474 127.928 267.563C127.828 267.651 127.764 267.774 127.749 267.906C127.735 268.038 127.772 268.169 127.852 268.269C127.932 268.37 128.048 268.433 128.177 268.445" fill="white"/>
<path d="M108.384 262.906C108.513 262.904 108.638 262.85 108.733 262.757C108.827 262.663 108.884 262.537 108.891 262.405C108.897 262.274 108.853 262.147 108.767 262.053C108.682 261.958 108.562 261.903 108.433 261.899C108.304 261.895 108.177 261.942 108.078 262.031C107.979 262.12 107.917 262.244 107.904 262.375C107.891 262.506 107.93 262.635 108.01 262.734C108.091 262.833 108.208 262.894 108.336 262.905" fill="white"/>
<path d="M107.985 246.176C108.115 246.175 108.242 246.123 108.338 246.029C108.435 245.936 108.493 245.81 108.501 245.677C108.509 245.545 108.466 245.417 108.381 245.321C108.296 245.224 108.176 245.167 108.046 245.162C107.917 245.156 107.788 245.202 107.687 245.291C107.587 245.379 107.523 245.503 107.508 245.635C107.494 245.767 107.531 245.897 107.611 245.998C107.691 246.099 107.808 246.162 107.937 246.174" fill="white"/>
<path d="M140.18 271.142C140.311 271.144 140.44 271.093 140.54 271.001C140.639 270.909 140.701 270.783 140.712 270.649C140.723 270.515 140.683 270.384 140.599 270.284C140.515 270.185 140.395 270.124 140.264 270.116C140.133 270.107 140.002 270.151 139.899 270.238C139.795 270.326 139.727 270.45 139.71 270.583C139.693 270.717 139.727 270.85 139.806 270.953C139.885 271.057 140.002 271.124 140.132 271.139" fill="white"/>
<path d="M153.648 274.26C153.778 274.256 153.901 274.303 153.993 274.392C154.084 274.481 154.136 274.604 154.138 274.736C154.14 274.867 154.091 274.996 154.002 275.096C153.912 275.195 153.79 275.257 153.661 275.267C153.532 275.278 153.406 275.237 153.31 275.153C153.214 275.069 153.156 274.948 153.148 274.817C153.14 274.687 153.183 274.555 153.268 274.452C153.352 274.349 153.471 274.281 153.6 274.264" fill="white"/>
<path d="M105.47 210.515C109.736 212.713 114.162 214.594 118.714 216.143C120.524 216.777 122.751 217.298 124.251 215.98C124.761 215.465 125.123 214.818 125.294 214.115C125.465 213.412 125.438 212.681 125.216 212.01C124.747 210.674 123.947 209.497 122.89 208.59C119.791 205.626 115.893 203.659 111.651 202.918C110.156 202.581 108.588 202.63 107.085 203.059C106.337 203.284 105.652 203.703 105.098 204.274C104.545 204.846 104.142 205.55 103.93 206.316C103.706 207.11 103.734 207.946 104.011 208.702C104.288 209.457 104.799 210.091 105.469 210.511" fill="#161359"/>
<path d="M124.752 214.136C124.659 214.197 123.981 213.029 122.523 211.472C120.638 209.433 118.323 207.861 115.746 206.867C113.17 205.874 110.397 205.486 107.629 205.73C105.501 205.906 104.213 206.316 104.185 206.208C104.174 206.169 104.482 206.024 105.065 205.833C105.891 205.57 106.737 205.382 107.592 205.271C110.439 204.894 113.318 205.233 115.978 206.258C118.639 207.284 120.999 208.964 122.854 211.154C123.414 211.808 123.916 212.513 124.352 213.261C124.656 213.799 124.785 214.112 124.752 214.136Z" fill="#393D8E"/>
<path d="M168.539 298.056C165.593 297.482 162.86 296.122 160.632 294.119C158.403 292.116 156.761 289.546 155.882 286.682C155.002 283.818 154.917 280.767 155.636 277.853C156.355 274.939 157.851 272.271 159.965 270.133C161.733 268.345 164.323 266.844 166.828 269.009C167.607 269.709 168.206 270.585 168.575 271.565C171.989 280.057 171.976 289.55 168.539 298.056Z" fill="#161359"/>
<path d="M160.836 294.287C160.822 294.303 160.89 294.39 161.038 294.537C161.258 294.758 161.508 294.948 161.781 295.1C161.994 295.219 162.235 295.282 162.481 295.283C162.769 295.258 163.049 295.172 163.302 295.032C163.597 294.874 163.845 294.642 164.021 294.359L164.551 293.497C166.497 290.307 167.698 286.736 168.065 283.044C168.473 279.349 167.992 275.619 166.66 272.156C166.236 271.095 165.526 270.171 164.606 269.481C164.279 269.213 163.882 269.042 163.459 268.986C163.435 269.041 163.861 269.187 164.454 269.674C165.264 270.401 165.878 271.313 166.243 272.332C167.412 275.752 167.816 279.386 167.428 282.986C167.061 286.593 165.951 290.094 164.164 293.275C163.806 293.889 163.574 294.495 163.125 294.723C162.951 294.855 162.744 294.94 162.527 294.966C162.309 294.993 162.089 294.961 161.889 294.874C161.207 294.557 160.871 294.228 160.836 294.287Z" fill="#393D8E"/>
<path d="M176.491 246.589L169.331 245.798C166.442 245.484 163.79 244.112 161.845 241.924L157.801 237.367C157.476 237.006 157.511 236.441 157.868 236.128C158.227 235.801 158.776 235.834 159.1 236.194L163.144 240.751C164.788 242.609 167.045 243.775 169.508 244.043L176.668 244.834C177.148 244.886 177.492 245.316 177.439 245.798C177.399 246.295 176.971 246.641 176.491 246.589Z" fill="#201028"/>
<path d="M176.396 247.459L173.494 247.144C172.536 247.04 171.836 246.164 171.954 245.202C172.059 244.238 172.929 243.547 173.887 243.651L176.789 243.966C177.747 244.07 178.447 244.945 178.329 245.908C178.211 246.87 177.355 247.563 176.396 247.459Z" fill="#FFD2D4"/>
<path d="M168.048 234.379C171.612 227.071 168.614 218.249 161.351 214.674C154.088 211.098 145.31 214.124 141.746 221.431C138.181 228.739 141.18 237.561 148.443 241.136C155.706 244.712 164.483 241.686 168.048 234.379Z" fill="#7786FF"/>
<path d="M164.102 229.277C165.121 222.406 160.884 216.083 154.637 215.154C148.39 214.224 142.5 219.041 141.481 225.911C140.462 232.782 144.699 239.105 150.946 240.035C157.193 240.964 163.083 236.148 164.102 229.277Z" fill="#C8CAFF"/>
<path d="M154.565 227.845C154.155 230.631 152.079 232.627 149.931 232.313C147.783 231.998 146.374 229.475 146.798 226.69C147.208 223.904 149.283 221.908 151.431 222.222C153.564 222.549 154.975 225.059 154.565 227.845Z" fill="#C6CBFA"/>
<path d="M443.867 360H70.9337C68.8735 360 67.1948 358.321 67.1948 356.24C67.1948 354.168 68.864 352.48 70.9337 352.48H443.867C445.927 352.48 447.606 354.159 447.606 356.24C447.606 358.312 445.927 360 443.867 360Z" fill="#083AD3"/>
<path d="M126.759 329.364C126.759 329.364 124.012 308.626 119.043 303.523" stroke="#1B2A67" stroke-width="0.8269" stroke-miterlimit="10" stroke-linecap="round"/>
<path d="M119.844 291.188C121.17 295.61 120.903 299.6 119.234 300.109C117.574 300.617 115.152 297.442 113.816 293.02C113.807 292.972 113.788 292.934 113.778 292.886C112.653 288.944 118.566 287.15 119.797 291.054C119.816 291.102 119.835 291.15 119.844 291.188Z" fill="#FFD2D4"/>
<path d="M127.732 301.068C123.335 302.401 119.367 302.133 118.862 300.454C118.356 298.785 121.513 296.349 125.91 295.006C125.958 294.996 125.996 294.977 126.044 294.967C129.954 293.836 131.748 299.783 127.866 301.02C127.818 301.039 127.77 301.058 127.732 301.068Z" fill="#FFD2D4"/>
<path d="M112.691 305.633C117.088 304.3 120.245 301.864 119.739 300.185C119.234 298.516 115.266 298.238 110.869 299.571C110.821 299.581 110.783 299.6 110.735 299.61C106.854 300.847 108.637 306.794 112.557 305.662C112.605 305.662 112.653 305.653 112.691 305.633Z" fill="#FFD2D4"/>
<path d="M120.092 310.66C121.332 306.209 120.97 302.228 119.301 301.758C117.631 301.288 115.266 304.511 114.036 308.962C114.026 309.01 114.007 309.048 113.997 309.096C112.958 313.058 118.9 314.726 120.054 310.794C120.064 310.746 120.083 310.708 120.092 310.66Z" fill="#FFD2D4"/>
<path d="M124.337 309.374C120.855 306.362 118.957 302.842 120.092 301.519C121.227 300.195 124.966 301.567 128.438 304.578C128.476 304.607 128.505 304.636 128.543 304.665C131.595 307.379 127.56 312.089 124.441 309.451C124.403 309.432 124.375 309.403 124.337 309.374Z" fill="#FFD2D4"/>
<path d="M121.313 300.684C121.656 301.826 121.017 303.034 119.873 303.38C118.738 303.725 117.536 303.082 117.193 301.931C116.849 300.79 117.488 299.581 118.633 299.236C119.768 298.9 120.97 299.543 121.313 300.684Z" fill="#D15E79"/>
<path d="M118.652 316.041C124.365 320.568 127.608 325.997 125.91 328.165C124.213 330.332 118.204 328.433 112.49 323.906C106.777 319.379 105.232 311.782 105.232 311.782C105.232 311.782 112.939 311.513 118.652 316.041Z" fill="#7786FF"/>
<path d="M138.701 322.889C132.673 328.577 126.053 331.34 123.907 329.047C121.761 326.755 124.918 320.28 130.946 314.592C136.974 308.904 145.74 308.434 145.74 308.434C145.74 308.434 144.729 317.192 138.701 322.889Z" fill="#7786FF"/>
<path d="M134.275 353.727H114.551L111.098 328.778H137.728L134.275 353.727Z" fill="#1B2A67"/>
<path d="M138.758 335.176H110.068C109.295 335.176 108.666 334.543 108.666 333.766V327.311C108.666 326.534 109.295 325.901 110.068 325.901H138.758C139.531 325.901 140.16 326.534 140.16 327.311V333.766C140.16 334.553 139.531 335.176 138.758 335.176Z" fill="#1B2A67"/>
<path d="M400.117 279.486C399.735 279.486 399.354 279.342 399.058 279.045C398.476 278.46 398.476 277.51 399.058 276.925L413.327 262.576C413.908 261.991 414.853 261.991 415.435 262.576C416.016 263.161 416.016 264.11 415.435 264.696L401.166 279.045C400.88 279.333 400.498 279.486 400.117 279.486Z" fill="#393D8E"/>
<path d="M389.959 270.681C389.138 270.681 388.461 270.009 388.461 269.175V248.888C388.461 248.063 389.129 247.382 389.959 247.382C390.779 247.382 391.456 248.054 391.456 248.888V269.175C391.447 270.009 390.779 270.681 389.959 270.681Z" fill="#393D8E"/>
<path d="M429.045 289.702H408.863C408.043 289.702 407.365 289.03 407.365 288.196C407.365 287.371 408.033 286.69 408.863 286.69H429.045C429.865 286.69 430.543 287.361 430.543 288.196C430.543 289.03 429.875 289.702 429.045 289.702Z" fill="#393D8E"/>
<path d="M249.827 352.816H373.286C376.73 352.816 377.788 350.005 377.788 346.542H243.589C243.589 350.015 246.384 352.816 249.827 352.816Z" fill="#161359"/>
<path d="M242.664 346.542H286.424C286.424 350.005 283.258 352.816 279.338 352.816H250.657C250.619 352.816 242.512 352.816 242.473 352.816C238.448 352.758 238.63 346.542 242.664 346.542Z" fill="#161359"/>
<path d="M289.162 348.375H377.798C380.431 348.375 382.691 346.495 383.178 343.895L395.129 292.349C395.768 288.953 393.183 285.807 389.749 285.807H301.123C298.49 285.807 296.23 287.687 295.734 290.296L283.792 341.843C283.134 345.228 285.719 348.375 289.162 348.375Z" fill="#E6E7F1"/>
<path d="M295.724 290.287C295.991 288.857 296.802 287.649 297.908 286.843C299.568 288.042 300.512 290.133 300.092 292.339L288.151 343.886C287.884 345.315 287.073 346.523 285.966 347.329C284.307 346.13 283.363 344.039 283.773 341.833L295.724 290.287Z" fill="#161359"/>
<path d="M351.464 323.656H336.928C333.942 323.656 331.529 321.23 331.529 318.227C331.529 315.225 333.942 312.798 336.928 312.798H351.464C354.449 312.798 356.862 315.225 356.862 318.227C356.862 321.23 354.449 323.656 351.464 323.656Z" fill="white"/>
<path d="M255.884 348.279H251.525C250.667 348.279 249.97 347.579 249.97 346.715C249.97 345.852 250.667 345.152 251.525 345.152H255.884C256.742 345.152 257.439 345.852 257.439 346.715C257.439 347.579 256.742 348.279 255.884 348.279Z" fill="#161359"/>
<path d="M264.392 348.279H260.033C259.174 348.279 258.478 347.579 258.478 346.715C258.478 345.852 259.174 345.152 260.033 345.152H264.392C265.25 345.152 265.946 345.852 265.946 346.715C265.946 347.579 265.25 348.279 264.392 348.279Z" fill="#161359"/>
<path d="M272.909 348.279H268.55C267.692 348.279 266.996 347.579 266.996 346.715C266.996 345.852 267.692 345.152 268.55 345.152H272.909C273.768 345.152 274.464 345.852 274.464 346.715C274.464 347.579 273.768 348.279 272.909 348.279Z" fill="#161359"/>
<path d="M281.417 348.279H277.058C276.2 348.279 275.503 347.579 275.503 346.715C275.503 345.852 276.2 345.152 277.058 345.152H281.417C282.275 345.152 282.972 345.852 282.972 346.715C282.981 347.579 282.275 348.279 281.417 348.279Z" fill="#161359"/>
</svg>
